<svg xmlns="http://www.w3.org/2000/svg" xmlns:xlink="http://www.w3.org/1999/xlink" version="1.1" id="Logo" x="0px" y="0px" style="enable-background:new 0 0 1875.12 688.82;" xml:space="preserve" viewBox="144.57 144.9 1583.89 399.02">
<style type="text/css">
	.st0{fill:#FFFFFF;}
</style>
<path class="st0" d="M809.33,303.62v66.55h-56.95L809.33,303.62z M809.93,272.12l-87.09,99.64v19.58h86.49v25.35h25.33v-25.35h17.15  v-21.18h-17.15v-98.05H809.93z"/>
<path class="st0" d="M970.85,344.31c0,45.86-27.93,52.05-55.65,52.05h-12.97V292.46h12.97  C942.93,292.46,970.85,298.64,970.85,344.31 M997.18,344.31c0-56.43-34.91-72.18-80.78-72.18h-39.5v144.57h39.5  C962.28,416.69,997.18,400.74,997.18,344.31"/>
<path class="st0" d="M1060.6,351.12l17.55,3.39c13.76,2.59,29.72,7.58,29.72,22.33c0,13.96-13.76,21.74-30.92,21.74  c-19.95,0-32.71-9.97-37.1-29.71h-24.93c2.99,31.71,26.53,50.45,60.84,50.45c28.53,0,57.45-14.96,57.45-44.07  c0-29.11-24.14-38.29-49.47-43.27l-17.75-3.39c-12.37-2.39-21.54-7.98-21.54-19.14c0-14.16,16.56-19.14,27.73-19.14  c14.16,0,29.32,4.99,33.51,22.33h24.54c-5.78-30.11-28.13-43.07-56.65-43.07c-26.53,0-54.65,13.56-54.65,40.68  C1018.91,334.77,1037.86,346.53,1060.6,351.12"/>
<path class="st0" d="M1262.85,344.35c0,35.1-18.95,54.24-42.88,54.24s-42.89-19.14-42.89-54.24s18.95-54.04,42.89-54.04  S1262.85,309.25,1262.85,344.35 M1288.98,344.35c0-44.47-26.53-74.78-69.02-74.78c-42.49,0-69.02,30.31-69.02,74.78  s26.53,74.98,69.02,74.98C1262.45,419.32,1288.98,388.81,1288.98,344.35"/>
<path class="st0" d="M1337.5,272.12h-25.33v84.35c0,46.66,17.75,62.81,59.24,62.81c42.09,0,59.04-17.95,59.04-63.61v-83.55h-25.33  v84.55c0,26.52-7.18,41.88-33.71,41.88c-26.93,0-33.91-14.56-33.91-41.08V272.12z"/>
<polygon class="st0" points="1545.26,416.69 1579.17,416.69 1579.17,272.12 1554.63,272.12 1554.63,387.58 1493.4,272.12   1459.49,272.12 1459.49,416.69 1484.02,416.69 1484.02,301.23 "/>
<path class="st0" d="M1702.14,344.31c0,45.86-27.92,52.04-55.63,52.04h-12.96V292.46h12.96  C1674.23,292.46,1702.14,298.64,1702.14,344.31 M1728.46,344.31c0-56.43-34.9-72.18-80.76-72.18h-39.48v144.57h39.48  C1693.57,416.69,1728.46,400.74,1728.46,344.31"/>
<path class="st0" d="M361.42,159.56v369.7c0,0.94,0.52,1.8,1.35,2.24l22.98,12.13c0.74,0.39,1.63,0.39,2.37,0l22.98-12.13  c0.83-0.44,1.35-1.3,1.35-2.24v-369.7c0-0.94-0.52-1.8-1.35-2.24l-22.98-12.13c-0.74-0.39-1.63-0.39-2.37,0l-22.98,12.13  C361.94,157.76,361.42,158.62,361.42,159.56z"/>
<path class="st0" d="M629.29,274.32l0,140.13c0,0.94-0.52,1.8-1.35,2.24l-22.98,12.13c-0.74,0.39-1.63,0.39-2.37,0l-22.98-12.13  c-0.83-0.44-1.35-1.3-1.35-2.24l0-140.13c0-0.94,0.52-1.8,1.35-2.24l22.98-12.09c0.74-0.39,1.62-0.39,2.36,0l22.98,12.09  C628.77,272.52,629.29,273.38,629.29,274.32z"/>
<path class="st0" d="M557.01,236.09V452.7c0,0.94-0.52,1.8-1.35,2.24l-22.98,12.15c-0.74,0.39-1.63,0.39-2.37,0l-22.98-12.15  c-0.83-0.44-1.35-1.3-1.35-2.24V236.09c0-0.94,0.52-1.8,1.35-2.24l22.98-12.13c0.74-0.39,1.63-0.39,2.37,0l22.98,12.13  C556.49,234.29,557.01,235.16,557.01,236.09z"/>
<path class="st0" d="M484.72,197.83v293.16c0,0.94-0.52,1.8-1.35,2.24l-22.98,12.13c-0.74,0.39-1.63,0.39-2.37,0l-22.98-12.13  c-0.83-0.44-1.35-1.3-1.35-2.24V197.83c0-0.94,0.52-1.8,1.35-2.24l22.98-12.13c0.74-0.39,1.63-0.39,2.37,0l22.98,12.13  C484.2,196.02,484.72,196.89,484.72,197.83z"/>
<path class="st0" d="M144.57,274.32l0,140.13c0,0.94,0.52,1.8,1.35,2.24l22.98,12.13c0.74,0.39,1.63,0.39,2.37,0l22.98-12.13  c0.83-0.44,1.35-1.3,1.35-2.24l0-140.13c0-0.94-0.52-1.8-1.35-2.24l-22.98-12.09c-0.74-0.39-1.62-0.39-2.36,0l-22.98,12.09  C145.09,272.52,144.57,273.38,144.57,274.32z"/>
<path class="st0" d="M216.85,236.09l0,216.61c0,0.94,0.52,1.8,1.35,2.24l22.98,12.15c0.74,0.39,1.63,0.39,2.37,0l22.98-12.15  c0.83-0.44,1.35-1.3,1.35-2.24l0-216.61c0-0.94-0.52-1.8-1.35-2.24l-22.98-12.13c-0.74-0.39-1.63-0.39-2.37,0l-22.98,12.13  C217.37,234.29,216.85,235.16,216.85,236.09z"/>
<path class="st0" d="M289.13,197.83v293.16c0,0.94,0.52,1.8,1.35,2.24l22.98,12.13c0.74,0.39,1.63,0.39,2.37,0l22.98-12.13  c0.83-0.44,1.35-1.3,1.35-2.24V197.83c0-0.94-0.52-1.8-1.35-2.24l-22.98-12.13c-0.74-0.39-1.63-0.39-2.37,0l-22.98,12.13  C289.65,196.02,289.13,196.89,289.13,197.83z"/>
</svg>